<?xml version="1.0" encoding="UTF-8" standalone="no"?><!DOCTYPE svg PUBLIC "-//W3C//DTD SVG 1.1//EN" "http://www.w3.org/Graphics/SVG/1.1/DTD/svg11.dtd"><svg width="100%" height="100%" viewBox="0 0 9863 8263" version="1.1" xmlns="http://www.w3.org/2000/svg" xmlns:xlink="http://www.w3.org/1999/xlink" xml:space="preserve" xmlns:serif="http://www.serif.com/" style="fill-rule:evenodd;clip-rule:evenodd;stroke-linejoin:round;stroke-miterlimit:2;"><path d="M1918.67,0c58.462,0 105.928,47.454 105.928,105.928l0,85.454l142.444,0c2.723,0 5.199,1.073 7.031,2.817c1.416,1.213 2.516,2.826 3.101,4.736l351.564,1148.02l350.961,-1146c1.053,-4.508 5.105,-7.875 9.932,-7.875l132.436,-0l0,-87.146c0,-58.474 47.47,-105.928 105.932,-105.928l1662.71,0c58.462,0 105.928,47.454 105.928,105.928l0,8050.64c0,58.461 -47.466,105.928 -105.928,105.928l-211.859,0c-58.462,0 -105.929,-47.467 -105.929,-105.928l0,-7732.86l-1344.92,-0c-58.462,-0 -105.932,-47.467 -105.932,-105.928l0,-83.901l-109.883,0l-363.36,1186.48c-1.641,5.368 -7.331,8.391 -12.699,6.749l-7.428,-2.279l-7.343,2.251c-5.368,1.642 -11.074,-1.378 -12.715,-6.746l-363.854,-1188.15l-120.187,-0l0,85.595c0,58.461 -47.466,105.928 -105.928,105.928l-1494.94,-0l0,941.146c0,58.474 -47.466,105.928 -105.928,105.928l-85.541,-0l-0,1345.35l85.541,0c58.462,0 105.928,47.454 105.928,105.928l0,1059.79l75.007,231.928l75.018,-231.969l0,-3301.3c0,-58.462 47.81,-105.928 106.691,-105.928l1040.27,-0c3.145,-0 6.259,0.134 9.329,0.4c48.085,-4.217 94.508,25.088 109.989,72.961l503.881,1558.1l368.13,0c0,0 503.884,-1558.1 503.884,-1558.1c17.035,-52.684 71.535,-82.884 124.514,-70.657c7.675,-1.769 15.662,-2.704 23.866,-2.704l852.646,-0c58.462,-0 105.928,47.466 105.928,105.928l0,3674.36c0,58.462 -47.466,105.928 -105.928,105.928l-85.532,0l-0,1345.36l85.532,0c58.462,0 105.928,47.47 105.928,105.931l0,2244.37c0,58.461 -47.466,105.928 -105.928,105.928l-211.859,-0c-58.462,-0 -105.929,-47.467 -105.929,-105.928l0,-2244.37c0,-58.461 47.467,-105.931 105.929,-105.931l85.529,0l-0,-1345.36l-85.529,0c-58.462,0 -105.929,-47.466 -105.929,-105.928l0,-3356.58l-351.217,-0l-503.877,1558.08c-14.772,45.687 -57.727,74.456 -103.418,73.321c-1.153,0.037 -2.313,0.056 -3.476,0.056l-817.304,-0c-1.326,-0 -2.648,-0.025 -3.964,-0.072c-45.919,1.41 -89.184,-27.411 -104.024,-73.305l-503.878,-1558.08l-510.539,-0l-0,3027c-0,1.116 -0.016,2.229 -0.05,3.333c0.378,11.876 -1.244,24.009 -5.108,35.952l-270.91,837.704l261.95,809.971c2.791,8.641 4.414,17.379 4.955,26.055c5.89,13.177 9.163,27.78 9.163,43.14l-0,2375.02c-0,58.462 -47.454,105.928 -105.928,105.928l-211.86,0c-58.461,0 -105.928,-47.466 -105.928,-105.928l0,-2333.72l-75.012,-231.953l-75.013,231.953l0,2333.72c0,58.462 -47.466,105.928 -105.928,105.928l-211.872,0c-58.461,0 -105.928,-47.466 -105.928,-105.928l-0,-2375.02c-0,-15.372 3.279,-29.985 9.179,-43.168c0.541,-8.66 2.163,-17.392 4.955,-26.027l261.944,-809.978l-270.907,-837.697c-3.842,-11.874 -5.468,-23.938 -5.112,-35.752c-0.04,-1.179 -0.059,-2.361 -0.059,-3.549l-0,-1103.22c-0,-58.474 47.467,-105.928 105.928,-105.928l85.532,0l0,-1345.35l-85.519,-0c-58.462,-0 -105.928,-47.454 -105.928,-105.928l-0,-1258.93c-0,-58.474 47.466,-105.928 105.928,-105.928l1812.73,0Zm4201.33,1149.71l-0,-1043.83c-0,-58.437 47.45,-105.887 105.887,-105.887l211.771,-0c58.45,-0 105.884,47.45 105.884,105.887l-0,1073.79c-0,3.425 -0.154,6.808 -0.479,10.154c1.341,13.958 -0.08,28.425 -4.675,42.621l-270.8,837.35l261.841,809.642c0.467,1.458 0.9,2.904 1.3,4.362c8.179,15.013 12.813,32.213 12.813,50.504l-0,4326.79l3209.18,0c58.438,0 105.883,47.446 105.883,105.883l0,211.771c0,58.438 -47.446,105.888 -105.883,105.888l-3526.84,-0c-58.438,-0 -105.888,-47.45 -105.888,-105.888l-0,-4588.88l-74.983,-231.871l-74.988,231.871l0,4845.62l3782.7,0c58.437,0 105.883,47.45 105.883,105.9l0,211.771c0,58.438 -47.446,105.883 -105.883,105.883l-4100.35,0c-58.438,0 -105.884,-47.445 -105.884,-105.883l0,-5218.92c0,-18.291 4.646,-35.491 12.825,-50.504c0.405,-1.458 0.834,-2.904 1.3,-4.362l261.834,-809.634l-270.804,-837.358c-4.584,-14.196 -6.017,-28.662 -4.663,-42.621c-0.325,-3.346 -0.492,-6.729 -0.492,-10.154l0,-1073.79c0,-58.438 47.446,-105.888 105.884,-105.888l211.771,0c58.45,0 105.887,47.45 105.887,105.888l0,1043.83l74.988,231.87l74.983,-231.87l0,0.05Z"/></svg>