<?xml version="1.0" encoding="UTF-8" standalone="no"?>
<svg
   xmlns:dc="http://purl.org/dc/elements/1.1/"
   xmlns:cc="http://creativecommons.org/ns#"
   xmlns:rdf="http://www.w3.org/1999/02/22-rdf-syntax-ns#"
   xmlns:svg="http://www.w3.org/2000/svg"
   xmlns="http://www.w3.org/2000/svg"
   xmlns:sodipodi="http://sodipodi.sourceforge.net/DTD/sodipodi-0.dtd"
   xmlns:inkscape="http://www.inkscape.org/namespaces/inkscape"
   width="127.96815mm"
   height="107.89902mm"
   viewBox="0 0 4770330.8 3369712"
   version="1.1"
   xml:space="preserve"
   style="clip-rule:evenodd;fill-rule:evenodd;stroke-linejoin:round;stroke-miterlimit:2"
   id="svg1520"
   sodipodi:docname="ML-icon_white_solid.svg"
   inkscape:export-filename="/home/local/work/code/github/marschall-lab/marschall-lab.github.io/img/group-logo/ML-icon_white_solid_w1511-h1274_300dpi.png"
   inkscape:export-xdpi="300"
   inkscape:export-ydpi="300"
   inkscape:version="0.92.5 (2060ec1f9f, 2020-04-08)"><metadata
     id="metadata1526"><rdf:RDF><cc:Work
         rdf:about=""><dc:format>image/svg+xml</dc:format><dc:type
           rdf:resource="http://purl.org/dc/dcmitype/StillImage" /><dc:title></dc:title></cc:Work></rdf:RDF></metadata><defs
     id="defs1524" /><sodipodi:namedview
     pagecolor="#000000"
     bordercolor="#666666"
     borderopacity="1"
     objecttolerance="10"
     gridtolerance="10"
     guidetolerance="10"
     inkscape:pageopacity="1"
     inkscape:pageshadow="2"
     inkscape:window-width="2007"
     inkscape:window-height="1684"
     id="namedview1522"
     showgrid="false"
     units="mm"
     fit-margin-top="2"
     fit-margin-left="2"
     fit-margin-right="2"
     fit-margin-bottom="2"
     inkscape:pagecheckerboard="false"
     inkscape:zoom="1.4142136"
     inkscape:cx="160.4521"
     inkscape:cy="147.56661"
     inkscape:window-x="544"
     inkscape:window-y="157"
     inkscape:window-maximized="0"
     inkscape:current-layer="svg1520" /><g
     id="g2072"
     transform="matrix(468.75,0,0,468.75,-34873083,106532950)"
     style="fill:#ffffff"><path
       inkscape:connector-curvature="0"
       id="path1518"
       d="m 76473.63,-227807.14 c 58.462,0 105.928,47.4 105.928,105.9 v 85.5 h 142.444 c 2.723,0 5.199,1 7.031,2.8 1.416,1.2 2.516,2.8 3.101,4.7 l 351.564,1148 350.961,-1146 c 1.053,-4.5 5.105,-7.8 9.932,-7.8 h 132.436 v -87.2 c 0,-58.5 47.47,-105.9 105.932,-105.9 h 1662.71 c 58.462,0 105.928,47.4 105.928,105.9 v 8050.6 c 0,58.5 -47.466,106 -105.928,106 h -211.859 c -58.462,0 -105.929,-47.5 -105.929,-106 v -7732.8 h -1344.92 c -58.462,0 -105.932,-47.5 -105.932,-105.9 v -83.9 h -109.883 l -363.36,1186.4 c -1.641,5.4 -7.331,8.4 -12.699,6.8 l -7.428,-2.3 -7.343,2.3 c -5.368,1.6 -11.074,-1.4 -12.715,-6.8 l -363.854,-1188.1 h -120.187 v 85.6 c 0,58.4 -47.466,105.9 -105.928,105.9 h -1494.94 v 941.1 c 0,58.5 -47.466,106 -105.928,106 h -85.541 v 1345.3 h 85.541 c 58.462,0 105.928,47.5 105.928,105.9 v 1059.8 l 75.007,232 75.018,-232 v -3301.3 c 0,-58.5 47.81,-105.9 106.691,-105.9 h 1040.27 c 3.145,0 6.259,0.1 9.329,0.4 48.085,-4.3 94.508,25 109.989,72.9 l 503.881,1558.1 h 368.13 c 0,0 503.884,-1558.1 503.884,-1558.1 17.035,-52.7 71.535,-82.9 124.514,-70.6 7.675,-1.8 15.662,-2.7 23.866,-2.7 h 852.646 c 58.462,0 105.928,47.4 105.928,105.9 v 3674.3 c 0,58.5 -47.466,106 -105.928,106 h -85.532 v 1345.3 h 85.532 c 58.462,0 105.928,47.5 105.928,106 v 2244.3 c 0,58.5 -47.466,106 -105.928,106 h -211.859 c -58.462,0 -105.929,-47.5 -105.929,-106 v -2244.3 c 0,-58.5 47.467,-106 105.929,-106 h 85.529 v -1345.3 h -85.529 c -58.462,0 -105.929,-47.5 -105.929,-106 v -3356.5 h -351.217 l -503.877,1558 c -14.772,45.7 -57.727,74.5 -103.418,73.4 -1.153,0 -2.313,0 -3.476,0 h -817.304 c -1.326,0 -2.648,0 -3.964,0 -45.919,1.4 -89.184,-27.5 -104.024,-73.4 l -503.878,-1558 h -510.539 v 3027 c 0,1.1 -0.02,2.2 -0.05,3.3 0.378,11.9 -1.244,24 -5.108,36 l -270.91,837.7 261.95,809.9 c 2.791,8.7 4.414,17.4 4.955,26.1 5.89,13.2 9.163,27.8 9.163,43.1 v 2375 c 0,58.5 -47.454,106 -105.928,106 h -211.86 c -58.461,0 -105.928,-47.5 -105.928,-106 v -2333.7 l -75.012,-231.9 -75.013,231.9 v 2333.7 c 0,58.5 -47.466,106 -105.928,106 h -211.872 c -58.461,0 -105.928,-47.5 -105.928,-106 v -2375 c 0,-15.4 3.279,-30 9.179,-43.1 0.541,-8.7 2.163,-17.4 4.955,-26.1 l 261.944,-810 -270.907,-837.6 c -3.842,-11.9 -5.468,-24 -5.112,-35.8 -0.04,-1.2 -0.06,-2.4 -0.06,-3.5 v -1103.3 c 0,-58.4 47.467,-105.9 105.928,-105.9 h 85.532 v -1345.3 h -85.519 c -58.462,0 -105.928,-47.5 -105.928,-106 v -1258.9 c 0,-58.5 47.466,-105.9 105.928,-105.9 h 1812.73 z m 4201.33,1149.7 v -1043.8 c 0,-58.5 47.45,-105.9 105.887,-105.9 h 211.771 c 58.45,0 105.884,47.4 105.884,105.9 v 1073.7 c 0,3.5 -0.154,6.9 -0.479,10.2 1.341,14 -0.08,28.4 -4.675,42.6 l -270.8,837.4 261.841,809.6 c 0.467,1.5 0.9,2.9 1.3,4.4 8.179,15 12.813,32.2 12.813,50.5 v 4326.8 h 3209.18 c 58.438,0 105.883,47.4 105.883,105.8 v 211.8 c 0,58.5 -47.446,105.9 -105.883,105.9 h -3526.84 c -58.438,0 -105.888,-47.4 -105.888,-105.9 v -4588.9 l -74.983,-231.8 -74.988,231.8 v 4845.7 h 3782.7 c 58.437,0 105.883,47.4 105.883,105.9 v 211.7 c 0,58.5 -47.446,105.9 -105.883,105.9 h -4100.35 c -58.438,0 -105.884,-47.4 -105.884,-105.9 v -5218.9 c 0,-18.3 4.646,-35.5 12.825,-50.5 0.405,-1.5 0.834,-2.9 1.3,-4.4 l 261.834,-809.6 -270.804,-837.3 c -4.584,-14.2 -6.017,-28.7 -4.663,-42.7 -0.325,-3.3 -0.492,-6.7 -0.492,-10.1 v -1073.8 c 0,-58.5 47.446,-105.9 105.884,-105.9 h 211.771 c 58.45,0 105.887,47.4 105.887,105.9 v 1043.8 l 74.988,231.9 74.983,-231.9 v 0.1 z"
       style="fill:#ffffff" /></g></svg>