<?xml version="1.0" encoding="UTF-8" standalone="no"?>
<svg
   xmlns:dc="http://purl.org/dc/elements/1.1/"
   xmlns:cc="http://creativecommons.org/ns#"
   xmlns:rdf="http://www.w3.org/1999/02/22-rdf-syntax-ns#"
   xmlns:svg="http://www.w3.org/2000/svg"
   xmlns="http://www.w3.org/2000/svg"
   xmlns:sodipodi="http://sodipodi.sourceforge.net/DTD/sodipodi-0.dtd"
   xmlns:inkscape="http://www.inkscape.org/namespaces/inkscape"
   width="3307.0867"
   height="3363.7795"
   viewBox="0 0 3307.0867 3363.7795"
   version="1.1"
   xml:space="preserve"
   style="clip-rule:evenodd;fill-rule:evenodd;stroke-linejoin:round;stroke-miterlimit:2"
   id="svg34"
   sodipodi:docname="ML-logo_blue_solid-white_large-margin.svg"
   inkscape:version="0.92.5 (2060ec1f9f, 2020-04-08)"
   inkscape:export-filename="/home/local/work/code/github/marschall-lab/marschall-lab.github.io/img/group-logo/ML-logo_blue_solid-white_large-margin.png"
   inkscape:export-xdpi="150"
   inkscape:export-ydpi="150"><metadata
     id="metadata40"><rdf:RDF><cc:Work
         rdf:about=""><dc:format>image/svg+xml</dc:format><dc:type
           rdf:resource="http://purl.org/dc/dcmitype/StillImage" /><dc:title></dc:title></cc:Work></rdf:RDF></metadata><defs
     id="defs38" /><sodipodi:namedview
     pagecolor="#ffffff"
     bordercolor="#666666"
     borderopacity="1"
     objecttolerance="10"
     gridtolerance="10"
     guidetolerance="10"
     inkscape:pageopacity="0"
     inkscape:pageshadow="2"
     inkscape:window-width="2435"
     inkscape:window-height="1755"
     id="namedview36"
     showgrid="false"
     inkscape:pagecheckerboard="true"
     inkscape:zoom="0.29307668"
     inkscape:cx="-47.588445"
     inkscape:cy="2251.2037"
     inkscape:window-x="548"
     inkscape:window-y="136"
     inkscape:window-maximized="0"
     inkscape:current-layer="svg34"
     fit-margin-top="0"
     fit-margin-left="0"
     fit-margin-right="0"
     fit-margin-bottom="0" /><g
     id="g923"
     transform="translate(68.633858,67.977699)"><rect
       ry="2.1352813"
       y="-67.783371"
       x="-68.439529"
       height="3363.3909"
       width="3306.698"
       id="rect847"
       style="fill:#ffffff;fill-opacity:1;stroke:#000000;stroke-width:0.38865662;stroke-linecap:square;stroke-linejoin:round;stroke-miterlimit:4;stroke-dasharray:none;stroke-dashoffset:0;stroke-opacity:1" /><g
       transform="translate(7.5279124,4.1480938)"
       id="g865"><path
         inkscape:connector-curvature="0"
         d="M 1958.4,367.908 V 33.883 C 1958.4,15.183 1973.584,0 1992.284,0 h 67.766 c 18.704,0 33.883,15.183 33.883,33.883 v 343.613 c 0,1.096 -0.05,2.179 -0.155,3.25 0.43,4.467 -0.025,9.096 -1.495,13.637 l -181.875,562.384 v 1550.6 h 1210.46 c 18.7,0 33.883,15.183 33.883,33.887 v 67.767 c 0,18.7 -15.183,33.883 -33.883,33.883 h -1312.11 c -18.7,0 -33.884,-15.183 -33.884,-33.883 V 938.971 c 0,-5.854 1.488,-11.358 4.104,-16.162 0.13,-0.467 0.267,-0.929 0.417,-1.396 L 1958.4,367.9 Z"
         style="fill:#819ebb"
         id="path2" /><path
         inkscape:connector-curvature="0"
         d="m 1775.04,380.746 c -0.434,4.467 0.024,9.096 1.491,13.637 l 181.875,562.384 v 1468.43 c 0,18.7 15.184,33.883 33.884,33.883 h 1128.59 c 18.7,0 33.883,-15.183 33.883,-33.883 v -67.767 c 0,-18.7 -15.183,-33.883 -33.883,-33.883 H 2093.94 l 10e-4,-1384.57 c -10e-4,-5.854 -1.484,-11.358 -4.101,-16.162 -0.129,-0.467 -0.266,-0.929 -0.416,-1.396 L 1910.416,367.906 V 33.881 c 0,-18.7 -15.18,-33.883 -33.884,-33.883 h -67.766 c -18.7,0 -33.884,15.183 -33.884,33.883 v 343.613 c 0,1.096 0.054,2.179 0.159,3.25 z"
         style="fill:#0b2e4f"
         id="path4" /><rect
         x="0"
         y="2814.9299"
         width="3154.76"
         height="404.60001"
         style="fill:#0b2e4f"
         id="rect6" /><g
         id="g26"><path
           inkscape:connector-curvature="0"
           d="m 330.533,3156.98 2.675,-198.833 h -1.783 l -53.117,198.833 h -50.441 l -51.334,-198.833 h -1.337 l 2.233,198.833 h -64.725 v -289.658 h 90.167 l 50.887,186.558 h 1.784 l 49.546,-186.558 h 95.525 v 289.658 z"
           style="fill:#ffffff;fill-rule:nonzero"
           id="path8" /><path
           inkscape:connector-curvature="0"
           d="m 597.012,3156.98 -12.941,-52.775 h -70.975 l -12.946,52.775 h -71.417 l 76.775,-289.658 h 89.721 l 76.329,289.658 h -74.545 z m -47.313,-226.654 h -1.788 l -26.779,123.146 h 54.009 z"
           style="fill:#ffffff;fill-rule:nonzero"
           id="path10" /><path
           inkscape:connector-curvature="0"
           d="m 831.358,3156.98 -42.404,-115.371 h -20.983 v 115.371 h -68.738 v -289.658 h 101.325 c 30.65,0 54.459,7.296 71.417,21.887 16.963,14.592 25.446,36.342 25.446,65.254 0,10.638 -1.342,20.184 -4.017,28.638 -2.679,8.458 -6.175,15.683 -10.491,21.683 -4.317,6.004 -9.15,10.913 -14.509,14.729 -5.354,3.821 -10.562,6.546 -15.621,8.184 l 54.009,129.283 z m -4.466,-198.833 c 0,-7.367 -1.113,-13.367 -3.346,-18.004 -2.234,-4.634 -5.134,-8.317 -8.704,-11.046 -3.571,-2.725 -7.513,-4.567 -11.83,-5.521 -4.316,-0.954 -8.554,-1.433 -12.72,-1.433 h -22.321 v 73.233 h 20.983 c 10.117,0 18.967,-2.933 26.558,-8.796 7.588,-5.862 11.38,-15.342 11.38,-28.433 z"
           style="fill:#ffffff;fill-rule:nonzero"
           id="path12" /><path
           inkscape:connector-curvature="0"
           d="m 1071.5,2936.87 c -5.358,-5.729 -11.608,-10.158 -18.75,-13.296 -7.141,-3.138 -14.579,-4.704 -22.317,-4.704 -8.033,0 -15.25,2.317 -21.649,6.954 -6.396,4.638 -9.596,12.275 -9.596,22.908 0,9.005 3.275,16.025 9.821,21.071 6.545,5.046 16.216,10.571 29.012,16.571 7.142,3.271 14.658,7.158 22.542,11.658 7.887,4.5 15.104,10.025 21.65,16.571 6.546,6.546 11.975,14.388 16.291,23.525 4.317,9.138 6.471,19.979 6.471,32.525 0,15.546 -2.675,29.254 -8.033,41.117 -5.354,11.867 -12.571,21.683 -21.65,29.458 -9.075,7.771 -19.563,13.638 -31.467,17.592 -11.904,3.954 -24.254,5.933 -37.05,5.933 -19.046,0 -36.379,-3.275 -52,-9.821 -15.625,-6.546 -28.196,-14.183 -37.721,-22.912 l 36.605,-49.092 c 6.845,6.546 14.729,11.796 23.658,15.75 8.925,3.954 18.004,5.933 27.229,5.933 8.629,0 15.917,-2.591 21.871,-7.775 5.95,-5.183 8.925,-12.408 8.925,-21.683 0,-9.546 -3.571,-17.117 -10.713,-22.704 -7.141,-5.592 -17.554,-11.525 -31.245,-17.8 -8.63,-3.817 -16.738,-8.046 -24.325,-12.683 -7.588,-4.634 -14.284,-10.225 -20.088,-16.771 -5.804,-6.546 -10.342,-14.183 -13.612,-22.913 -3.275,-8.729 -4.913,-19.091 -4.913,-31.091 0,-16.096 2.904,-29.938 8.704,-41.529 5.804,-11.592 13.392,-21.067 22.767,-28.434 9.371,-7.362 19.787,-12.816 31.246,-16.362 11.454,-3.546 22.987,-5.321 34.591,-5.321 17.259,0 32.734,2.592 46.425,7.775 13.688,5.179 25.142,12.271 34.367,21.275 z"
           style="fill:#ffffff;fill-rule:nonzero"
           id="path14" /><path
           inkscape:connector-curvature="0"
           d="m 1343.79,3125.47 c -8.63,11.183 -19.938,20.525 -33.925,28.025 -13.984,7.504 -31.842,11.254 -53.563,11.254 -18.45,0 -35.187,-3.75 -50.217,-11.254 -15.029,-7.5 -27.9,-18 -38.612,-31.5 -10.713,-13.5 -19.042,-29.596 -24.996,-48.279 -5.95,-18.683 -8.925,-39.204 -8.925,-61.571 0,-22.637 2.975,-43.367 8.925,-62.187 5.954,-18.821 14.283,-34.913 24.996,-48.275 10.712,-13.367 23.583,-23.73 38.612,-31.096 15.03,-7.363 31.767,-11.046 50.217,-11.046 21.129,0 38.758,3.479 52.896,10.433 14.133,6.954 25.517,15.613 34.146,25.979 l -38.388,47.459 c -5.358,-6.546 -11.383,-11.729 -18.079,-15.546 -6.696,-3.821 -15.1,-5.729 -25.221,-5.729 -9.521,0 -17.779,2.321 -24.771,6.954 -6.995,4.637 -12.946,10.979 -17.854,19.025 -4.912,8.046 -8.558,17.592 -10.937,28.637 -2.38,11.05 -3.571,22.846 -3.571,35.392 0,12.546 1.191,24.275 3.571,35.183 2.379,10.913 6.025,20.459 10.937,28.638 4.908,8.183 10.934,14.596 18.075,19.229 7.142,4.638 15.475,6.958 25,6.958 9.521,0 17.854,-2.183 24.996,-6.545 7.142,-4.367 12.796,-9.55 16.963,-15.55 z"
           style="fill:#ffffff;fill-rule:nonzero"
           id="path16" /><path
           inkscape:connector-curvature="0"
           d="m 1519.66,3156.98 v -121.1 h -73.654 v 121.1 h -70.971 v -289.658 h 70.971 v 110.054 h 73.654 v -110.054 h 70.971 v 289.658 z"
           style="fill:#ffffff;fill-rule:nonzero"
           id="path18" /><path
           inkscape:connector-curvature="0"
           d="m 1787.03,3156.98 -12.941,-52.775 h -70.975 l -12.942,52.775 h -71.421 l 76.775,-289.658 h 89.721 l 76.329,289.658 z m -47.312,-226.654 h -1.788 l -26.779,123.146 h 54.008 z"
           style="fill:#ffffff;fill-rule:nonzero"
           id="path20" /><path
           inkscape:connector-curvature="0"
           d="m 1889.25,3156.98 v -289.658 h 72.313 v 229.108 h 84.362 v 60.55 z"
           style="fill:#ffffff;fill-rule:nonzero"
           id="path22" /><path
           inkscape:connector-curvature="0"
           d="m 2078.06,3156.98 -10e-4,-289.658 h 72.313 v 229.108 h 84.363 v 60.55 z"
           style="fill:#ffffff;fill-rule:nonzero"
           id="path24" /></g><path
         inkscape:connector-curvature="0"
         d="m 3140.4,2830.2 h -801.117 v 374.071 H 3140.4 Z m -689.196,326.783 v -289.658 h 66.279 v 229.108 h 77.325 v 60.55 z m 577.275,-82.642 c 0,15.546 -2.525,28.571 -7.571,39.071 -5.046,10.5 -11.658,18.954 -19.841,25.367 -8.184,6.408 -17.388,11.046 -27.617,13.908 -10.229,2.863 -20.525,4.296 -30.888,4.296 h -96.145 v -289.658 h 86.737 c 9,0 18.546,0.954 28.638,2.862 10.091,1.909 19.295,5.525 27.616,10.842 8.317,5.321 15.271,12.887 20.863,22.708 5.591,9.817 8.387,22.5 8.387,38.046 0,17.183 -3.475,30.892 -10.433,41.117 -6.954,10.229 -15.475,17.662 -25.571,22.3 v 0.816 c 5.458,1.363 10.913,3.817 16.367,7.363 5.454,3.546 10.366,8.117 14.729,13.708 4.362,5.592 7.908,12.342 10.637,20.25 2.725,7.913 4.092,16.913 4.092,27.004 z m -275.75,82.642 -11.867,-52.775 h -65.05 l -11.862,52.775 h -65.463 l 70.371,-289.658 h 82.234 l 69.962,289.658 z m 213.563,-88.779 c 0,-6.546 -1.025,-12.071 -3.071,-16.571 -2.042,-4.5 -4.771,-8.183 -8.179,-11.046 -3.413,-2.862 -7.23,-4.979 -11.459,-6.341 -4.225,-1.363 -8.387,-2.046 -12.475,-2.046 h -23.729 v 70.371 h 24.546 c 9.546,0 17.658,-2.867 24.342,-8.592 6.683,-5.729 10.025,-14.321 10.025,-25.775 z m -256.93,-137.875 h -1.637 l -24.546,123.146 h 49.504 z m 251.609,22.092 c 0,-11.184 -3.134,-19.092 -9.409,-23.73 -6.275,-4.637 -13.637,-6.954 -22.091,-6.954 h -22.092 v 62.596 h 22.5 c 7.908,0 15.071,-2.454 21.479,-7.362 6.409,-4.913 9.613,-13.096 9.613,-24.55 z"
         style="fill:#ffffff"
         id="path28" /><path
         inkscape:connector-curvature="0"
         d="m 613.719,0 c 18.7,0 33.883,15.179 33.883,33.883 v 27.334 h 45.563 c 0.871,0 1.663,0.343 2.249,0.901 0.453,0.388 0.805,0.904 0.992,1.515 L 808.86,430.845 921.121,64.277 c 0.337,-1.442 1.633,-2.519 3.177,-2.519 h 42.361 V 33.883 C 966.659,15.179 981.843,0 1000.543,0 h 531.845 c 18.7,0 33.883,15.179 33.883,33.883 v 2575.13 c 0,18.7 -15.183,33.883 -33.883,33.883 h -67.767 c -18.7,0 -33.883,-15.183 -33.883,-33.883 V 135.533 h -430.195 c -18.7,0 -33.884,-15.183 -33.884,-33.883 V 74.813 H 931.512 L 815.285,454.328 c -0.525,1.717 -2.345,2.684 -4.062,2.159 l -2.376,-0.729 -2.349,0.72 c -1.717,0.525 -3.542,-0.441 -4.067,-2.158 L 686.046,74.271 h -38.444 v 27.379 c 0,18.7 -15.183,33.883 -33.883,33.883 H 135.537 v 301.041 c 0,18.704 -15.183,33.883 -33.883,33.883 H 74.292 V 900.79 h 27.362 c 18.7,0 33.883,15.179 33.883,33.883 v 338.991 l 179.004,553.498 c 0.893,2.764 1.412,5.559 1.585,8.334 1.884,4.215 2.931,8.886 2.931,13.799 v 759.69 c 0,18.7 -15.179,33.883 -33.883,33.883 h -67.767 c -18.7,0 -33.882,-15.183 -33.882,-33.883 v -746.48 L 1.654,1300.126 C 0.425,1296.328 -0.095,1292.469 0.019,1288.69 0.006,1288.313 0,1287.935 0,1287.555 V 934.673 C 0,915.969 15.183,900.79 33.883,900.79 H 61.242 V 470.457 H 33.887 c -18.7,0 -33.883,-15.179 -33.883,-33.883 V 33.883 C 0.004,15.179 15.187,0 33.887,0 Z"
         style="fill:#0b2e4f"
         id="path30" /><path
         inkscape:connector-curvature="0"
         d="m 867.493,705.64 161.175,-498.383 c 5.449,-16.852 22.882,-26.511 39.828,-22.6 2.455,-0.566 5.01,-0.865 7.634,-0.865 h 272.733 c 18.7,0 33.883,15.182 33.883,33.882 v 1175.31 c 0,18.7 -15.183,33.883 -33.883,33.883 h -27.359 v 430.336 h 27.359 c 18.7,0 33.883,15.184 33.883,33.884 v 717.898 c 0,18.7 -15.183,33.883 -33.883,33.883 h -67.766 c -18.7,0 -33.883,-15.183 -33.883,-33.883 v -717.898 c 0,-18.7 15.183,-33.884 33.883,-33.884 h 27.358 v -430.336 h -27.358 c -18.7,0 -33.883,-15.183 -33.883,-33.883 V 319.324 H 1134.871 L 973.697,817.702 c -4.725,14.614 -18.465,23.816 -33.08,23.453 -0.369,0.012 -0.74,0.018 -1.111,0.018 H 678.077 c -0.424,0 -0.847,-0.008 -1.268,-0.023 -14.688,0.451 -28.527,-8.768 -33.274,-23.448 L 482.362,319.324 H 319.057 v 968.236 c 0,0.357 -0.005,0.713 -0.016,1.066 0.121,3.799 -0.398,7.68 -1.634,11.5 l -181.87,562.379 v 746.48 c 0,18.7 -15.183,33.883 -33.883,33.883 H 33.883 C 15.183,2642.868 0,2627.685 0,2608.985 v -759.69 c 0,-4.917 1.049,-9.591 2.936,-13.808 0.173,-2.77 0.692,-5.563 1.585,-8.325 L 183.525,1273.651 V 217.671 c 0,-18.7 15.292,-33.882 34.126,-33.882 H 550.4 c 1.006,0 2.002,0.043 2.984,0.128 15.38,-1.349 30.229,8.024 35.181,23.337 L 749.74,705.637 h 117.753 z"
         style="fill:#819ebb"
         id="path32" /></g></g></svg>