<?xml version="1.0" encoding="UTF-8" standalone="no"?><!DOCTYPE svg PUBLIC "-//W3C//DTD SVG 1.1//EN" "http://www.w3.org/Graphics/SVG/1.1/DTD/svg11.dtd"><svg width="100%" height="100%" viewBox="0 0 3159 3221" version="1.1" xmlns="http://www.w3.org/2000/svg" xmlns:xlink="http://www.w3.org/1999/xlink" xml:space="preserve" xmlns:serif="http://www.serif.com/" style="fill-rule:evenodd;clip-rule:evenodd;stroke-linejoin:round;stroke-miterlimit:2;"><path d="M1958.4,367.908l0,-334.025c0,-18.7 15.184,-33.883 33.884,-33.883l67.766,0c18.704,0 33.883,15.183 33.883,33.883l0.001,343.613c-0.001,1.096 -0.05,2.179 -0.155,3.25c0.43,4.467 -0.025,9.096 -1.495,13.637l-181.875,562.384l-0,1550.6l1210.46,-0c18.7,-0 33.883,15.183 33.883,33.887l0,67.767c0,18.7 -15.183,33.883 -33.883,33.883l-1312.11,0c-18.7,0 -33.884,-15.183 -33.884,-33.883l0,-1670.05c0,-5.854 1.488,-11.358 4.104,-16.162c0.13,-0.467 0.267,-0.929 0.417,-1.396l179.004,-553.513Z" style="fill:#819ebb;"/><path d="M1775.04,380.746c-0.434,4.467 0.024,9.096 1.491,13.637l181.875,562.384l0,1468.43c0,18.7 15.184,33.883 33.884,33.883l1128.59,0c18.7,0 33.883,-15.183 33.883,-33.883l0,-67.767c0,-18.7 -15.183,-33.883 -33.883,-33.883l-1026.94,0l0.001,-1384.57c-0.001,-5.854 -1.484,-11.358 -4.101,-16.162c-0.129,-0.467 -0.266,-0.929 -0.416,-1.396l-179.008,-553.513l-0,-334.025c-0,-18.7 -15.18,-33.883 -33.884,-33.883l-67.766,0c-18.7,0 -33.884,15.183 -33.884,33.883l0,343.613c0,1.096 0.054,2.179 0.159,3.25Z" style="fill:#0b2e4f;"/><rect x="0" y="2814.93" width="3154.76" height="404.6" style="fill:#0b2e4f;"/><g><path d="M330.533,3156.98l2.675,-198.833l-1.783,-0l-53.117,198.833l-50.441,0l-51.334,-198.833l-1.337,-0l2.233,198.833l-64.725,0l0,-289.658l90.167,-0l50.887,186.558l1.784,0l49.546,-186.558l95.525,-0l-0,289.658l-70.08,0Z" style="fill:#fff;fill-rule:nonzero;"/><path d="M597.012,3156.98l-12.941,-52.775l-70.975,0l-12.946,52.775l-71.417,0l76.775,-289.658l89.721,-0l76.329,289.658l-74.545,0Zm-47.313,-226.654l-1.788,-0l-26.779,123.146l54.009,-0l-25.442,-123.146Z" style="fill:#fff;fill-rule:nonzero;"/><path d="M831.358,3156.98l-42.404,-115.371l-20.983,0l-0,115.371l-68.738,0l0,-289.658l101.325,-0c30.65,-0 54.459,7.296 71.417,21.887c16.963,14.592 25.446,36.342 25.446,65.254c-0,10.638 -1.342,20.184 -4.017,28.638c-2.679,8.458 -6.175,15.683 -10.491,21.683c-4.317,6.004 -9.15,10.913 -14.509,14.729c-5.354,3.821 -10.562,6.546 -15.621,8.184l54.009,129.283l-75.434,0Zm-4.466,-198.833c-0,-7.367 -1.113,-13.367 -3.346,-18.004c-2.234,-4.634 -5.134,-8.317 -8.704,-11.046c-3.571,-2.725 -7.513,-4.567 -11.83,-5.521c-4.316,-0.954 -8.554,-1.433 -12.72,-1.433l-22.321,-0l-0,73.233l20.983,-0c10.117,-0 18.967,-2.933 26.558,-8.796c7.588,-5.862 11.38,-15.342 11.38,-28.433Z" style="fill:#fff;fill-rule:nonzero;"/><path d="M1071.5,2936.87c-5.358,-5.729 -11.608,-10.158 -18.75,-13.296c-7.141,-3.138 -14.579,-4.704 -22.317,-4.704c-8.033,-0 -15.25,2.317 -21.649,6.954c-6.396,4.638 -9.596,12.275 -9.596,22.908c-0,9.005 3.275,16.025 9.821,21.071c6.545,5.046 16.216,10.571 29.012,16.571c7.142,3.271 14.658,7.158 22.542,11.658c7.887,4.5 15.104,10.025 21.65,16.571c6.546,6.546 11.975,14.388 16.291,23.525c4.317,9.138 6.471,19.979 6.471,32.525c0,15.546 -2.675,29.254 -8.033,41.117c-5.354,11.867 -12.571,21.683 -21.65,29.458c-9.075,7.771 -19.563,13.638 -31.467,17.592c-11.904,3.954 -24.254,5.933 -37.05,5.933c-19.046,0 -36.379,-3.275 -52,-9.821c-15.625,-6.546 -28.196,-14.183 -37.721,-22.912l36.605,-49.092c6.845,6.546 14.729,11.796 23.658,15.75c8.925,3.954 18.004,5.933 27.229,5.933c8.629,0 15.917,-2.591 21.871,-7.775c5.95,-5.183 8.925,-12.408 8.925,-21.683c-0,-9.546 -3.571,-17.117 -10.713,-22.704c-7.141,-5.592 -17.554,-11.525 -31.245,-17.8c-8.63,-3.817 -16.738,-8.046 -24.325,-12.683c-7.588,-4.634 -14.284,-10.225 -20.088,-16.771c-5.804,-6.546 -10.342,-14.183 -13.612,-22.913c-3.275,-8.729 -4.913,-19.091 -4.913,-31.091c0,-16.096 2.904,-29.938 8.704,-41.529c5.804,-11.592 13.392,-21.067 22.767,-28.434c9.371,-7.362 19.787,-12.816 31.246,-16.362c11.454,-3.546 22.987,-5.321 34.591,-5.321c17.259,-0 32.734,2.592 46.425,7.775c13.688,5.179 25.142,12.271 34.367,21.275l-37.046,48.275Z" style="fill:#fff;fill-rule:nonzero;"/><path d="M1343.79,3125.47c-8.63,11.183 -19.938,20.525 -33.925,28.025c-13.984,7.504 -31.842,11.254 -53.563,11.254c-18.45,0 -35.187,-3.75 -50.217,-11.254c-15.029,-7.5 -27.9,-18 -38.612,-31.5c-10.713,-13.5 -19.042,-29.596 -24.996,-48.279c-5.95,-18.683 -8.925,-39.204 -8.925,-61.571c0,-22.637 2.975,-43.367 8.925,-62.187c5.954,-18.821 14.283,-34.913 24.996,-48.275c10.712,-13.367 23.583,-23.73 38.612,-31.096c15.03,-7.363 31.767,-11.046 50.217,-11.046c21.129,-0 38.758,3.479 52.896,10.433c14.133,6.954 25.517,15.613 34.146,25.979l-38.388,47.459c-5.358,-6.546 -11.383,-11.729 -18.079,-15.546c-6.696,-3.821 -15.1,-5.729 -25.221,-5.729c-9.521,-0 -17.779,2.321 -24.771,6.954c-6.995,4.637 -12.946,10.979 -17.854,19.025c-4.912,8.046 -8.558,17.592 -10.937,28.637c-2.38,11.05 -3.571,22.846 -3.571,35.392c-0,12.546 1.191,24.275 3.571,35.183c2.379,10.913 6.025,20.459 10.937,28.638c4.908,8.183 10.934,14.596 18.075,19.229c7.142,4.638 15.475,6.958 25,6.958c9.521,0 17.854,-2.183 24.996,-6.545c7.142,-4.367 12.796,-9.55 16.963,-15.55l39.725,45.412Z" style="fill:#fff;fill-rule:nonzero;"/><path d="M1519.66,3156.98l0,-121.1l-73.654,0l0,121.1l-70.971,0l0,-289.658l70.971,-0l0,110.054l73.654,-0l0,-110.054l70.971,-0l0,289.658l-70.971,0Z" style="fill:#fff;fill-rule:nonzero;"/><path d="M1787.03,3156.98l-12.941,-52.775l-70.975,0l-12.942,52.775l-71.421,0l76.775,-289.658l89.721,-0l76.329,289.658l-74.546,0Zm-47.312,-226.654l-1.788,-0l-26.779,123.146l54.008,-0l-25.441,-123.146Z" style="fill:#fff;fill-rule:nonzero;"/><path d="M1889.25,3156.98l0,-289.658l72.313,-0l-0,229.108l84.362,0l0,60.55l-156.675,0Z" style="fill:#fff;fill-rule:nonzero;"/><path d="M2078.06,3156.98l-0.001,-289.658l72.313,-0l0,229.108l84.363,0l-0,60.55l-156.675,0Z" style="fill:#fff;fill-rule:nonzero;"/></g><path d="M3140.4,2830.2l-801.117,-0l0,374.071l801.117,-0l0,-374.071Zm-689.196,326.783l0,-289.658l66.279,-0l0,229.108l77.325,0l0,60.55l-143.604,0Zm577.275,-82.642c0,15.546 -2.525,28.571 -7.571,39.071c-5.046,10.5 -11.658,18.954 -19.841,25.367c-8.184,6.408 -17.388,11.046 -27.617,13.908c-10.229,2.863 -20.525,4.296 -30.888,4.296l-96.145,0l-0,-289.658l86.737,-0c9,-0 18.546,0.954 28.638,2.862c10.091,1.909 19.295,5.525 27.616,10.842c8.317,5.321 15.271,12.887 20.863,22.708c5.591,9.817 8.387,22.5 8.387,38.046c0,17.183 -3.475,30.892 -10.433,41.117c-6.954,10.229 -15.475,17.662 -25.571,22.3l0,0.816c5.458,1.363 10.913,3.817 16.367,7.363c5.454,3.546 10.366,8.117 14.729,13.708c4.362,5.592 7.908,12.342 10.637,20.25c2.725,7.913 4.092,16.913 4.092,27.004Zm-275.75,82.642l-11.867,-52.775l-65.05,0l-11.862,52.775l-65.463,0l70.371,-289.658l82.234,-0l69.962,289.658l-68.325,0Zm213.563,-88.779c-0,-6.546 -1.025,-12.071 -3.071,-16.571c-2.042,-4.5 -4.771,-8.183 -8.179,-11.046c-3.413,-2.862 -7.23,-4.979 -11.459,-6.341c-4.225,-1.363 -8.387,-2.046 -12.475,-2.046l-23.729,-0l0,70.371l24.546,-0c9.546,-0 17.658,-2.867 24.342,-8.592c6.683,-5.729 10.025,-14.321 10.025,-25.775Zm-256.93,-137.875l-1.637,-0l-24.546,123.146l49.504,-0l-23.321,-123.146Zm251.609,22.092c-0,-11.184 -3.134,-19.092 -9.409,-23.73c-6.275,-4.637 -13.637,-6.954 -22.091,-6.954l-22.092,0l0,62.596l22.5,0c7.908,0 15.071,-2.454 21.479,-7.362c6.409,-4.913 9.613,-13.096 9.613,-24.55Z" style="fill:#fff;"/><path d="M613.719,0c18.7,0 33.883,15.179 33.883,33.883l0,27.334l45.563,-0c0.871,-0 1.663,0.343 2.249,0.901c0.453,0.388 0.805,0.904 0.992,1.515l112.454,367.212l112.261,-366.568c0.337,-1.442 1.633,-2.519 3.177,-2.519l42.361,-0l0,-27.875c0,-18.704 15.184,-33.883 33.884,-33.883l531.845,0c18.7,0 33.883,15.179 33.883,33.883l-0,2575.13c-0,18.7 -15.183,33.883 -33.883,33.883l-67.767,-0c-18.7,-0 -33.883,-15.183 -33.883,-33.883l0,-2473.48l-430.195,-0c-18.7,-0 -33.884,-15.183 -33.884,-33.883l0,-26.837l-35.147,-0l-116.227,379.515c-0.525,1.717 -2.345,2.684 -4.062,2.159l-2.376,-0.729l-2.349,0.72c-1.717,0.525 -3.542,-0.441 -4.067,-2.158l-116.385,-380.049l-38.444,-0l0,27.379c0,18.7 -15.183,33.883 -33.883,33.883l-478.182,-0l-0,301.041c-0,18.704 -15.183,33.883 -33.883,33.883l-27.362,-0l-0,430.333l27.362,-0c18.7,-0 33.883,15.179 33.883,33.883l-0,338.991l179.004,553.498c0.893,2.764 1.412,5.559 1.585,8.334c1.884,4.215 2.931,8.886 2.931,13.799l0,759.69c0,18.7 -15.179,33.883 -33.883,33.883l-67.767,-0c-18.7,-0 -33.882,-15.183 -33.882,-33.883l-0,-746.48l-181.871,-562.379c-1.229,-3.798 -1.749,-7.657 -1.635,-11.436c-0.013,-0.377 -0.019,-0.755 -0.019,-1.135l0,-352.882c0,-18.704 15.183,-33.883 33.883,-33.883l27.359,-0l-0,-430.333l-27.355,-0c-18.7,-0 -33.883,-15.179 -33.883,-33.883l-0,-402.691c-0,-18.704 15.183,-33.883 33.883,-33.883l579.832,0Z" style="fill:#0b2e4f;"/><path d="M867.493,705.64l161.175,-498.383c5.449,-16.852 22.882,-26.511 39.828,-22.6c2.455,-0.566 5.01,-0.865 7.634,-0.865l272.733,-0c18.7,-0 33.883,15.182 33.883,33.882l0,1175.31c0,18.7 -15.183,33.883 -33.883,33.883l-27.359,0l0,430.336l27.359,0c18.7,0 33.883,15.184 33.883,33.884l0,717.898c0,18.7 -15.183,33.883 -33.883,33.883l-67.766,-0c-18.7,-0 -33.883,-15.183 -33.883,-33.883l-0,-717.898c-0,-18.7 15.183,-33.884 33.883,-33.884l27.358,0l-0,-430.336l-27.358,0c-18.7,0 -33.883,-15.183 -33.883,-33.883l-0,-1073.66l-112.343,0l-161.174,498.378c-4.725,14.614 -18.465,23.816 -33.08,23.453c-0.369,0.012 -0.74,0.018 -1.111,0.018l-261.429,-0c-0.424,-0 -0.847,-0.008 -1.268,-0.023c-14.688,0.451 -28.527,-8.768 -33.274,-23.448l-161.173,-498.378l-163.305,0l0,968.236c0,0.357 -0.005,0.713 -0.016,1.066c0.121,3.799 -0.398,7.68 -1.634,11.5l-181.87,562.379l-0,746.48c-0,18.7 -15.183,33.883 -33.883,33.883l-67.771,-0c-18.7,-0 -33.883,-15.183 -33.883,-33.883l0,-759.69c0,-4.917 1.049,-9.591 2.936,-13.808c0.173,-2.77 0.692,-5.563 1.585,-8.325l179.004,-553.511l-0,-1055.98c-0,-18.7 15.292,-33.882 34.126,-33.882l332.749,-0c1.006,-0 2.002,0.043 2.984,0.128c15.38,-1.349 30.229,8.024 35.181,23.337l161.175,498.383l117.753,0Z" style="fill:#819ebb;"/></svg>